HIERARCHY
ROOT root     
{
	OFFSET 0.0000 0.0000 0.0000
	CHANNELS 6 Xposition Yposition Zposition Zrotation Yrotation Xrotation
	JOINT pelvis   
	{
		OFFSET 0.0000 0.0000 0.0000
		CHANNELS 3 Zrotation Yrotation Xrotation
		JOINT thorax   
		{
			OFFSET 0.0000 23.0750 -5.0000
			CHANNELS 3 Zrotation Yrotation Xrotation
			JOINT rclavicle
			{
				OFFSET 0.0000 28.0009 0.0000
				CHANNELS 3 Zrotation Yrotation Xrotation
				JOINT rhumerus 
				{
					OFFSET -18.5725 5.5939 0.0000
					CHANNELS 3 Zrotation Yrotation Xrotation
					JOINT rradius  
					{
						OFFSET -24.8459 0.0000 0.0000
						CHANNELS 3 Zrotation Yrotation Xrotation
						JOINT rhand    
						{
							OFFSET -24.5477 0.0000 0.0000
							CHANNELS 3 Zrotation Yrotation Xrotation
							End Site
							{
								OFFSET -8.1826 0.0000 0.0000
							}
						}
					}
				}
			}
			JOINT lclavicle
			{
				OFFSET 0.0000 28.0009 0.0000
				CHANNELS 3 Zrotation Yrotation Xrotation
				JOINT lhumerus 
				{
					OFFSET 18.5725 5.5939 0.0000
					CHANNELS 3 Zrotation Yrotation Xrotation
					JOINT lradius  
					{
						OFFSET 24.8459 0.0000 0.0000
						CHANNELS 3 Zrotation Yrotation Xrotation
						JOINT lhand    
						{
							OFFSET 24.5477 0.0000 0.0000
							CHANNELS 3 Zrotation Yrotation Xrotation
							End Site
							{
								OFFSET 8.1826 0.0000 0.0000
							}
						}
					}
				}
			}
			JOINT head     
			{
				OFFSET 0.0000 35.2030 0.0000
				CHANNELS 3 Zrotation Yrotation Xrotation
				End Site
				{
					OFFSET 0.0000 11.7343 0.0000
				}
			}
		}
		JOINT rfemur   
		{
			OFFSET -8.2817 0.0000 0.0000
			CHANNELS 3 Zrotation Yrotation Xrotation
			JOINT rtibia   
			{
				OFFSET 0.0000 -43.3627 0.0000
				CHANNELS 3 Zrotation Yrotation Xrotation
				JOINT rfoot    
				{
					OFFSET 0.0000 -38.2947 0.0000
					CHANNELS 3 Zrotation Yrotation Xrotation
					JOINT rtoes    
					{
						OFFSET 0.0000 0.0000 16.6054
						CHANNELS 3 Zrotation Yrotation Xrotation
						End Site
						{
							OFFSET 0.0000 0.0000 5.5351
						}
					}
				}
			}
		}
		JOINT lfemur   
		{
			OFFSET 8.2817 0.0000 0.0000
			CHANNELS 3 Zrotation Yrotation Xrotation
			JOINT ltibia   
			{
				OFFSET 0.0000 -43.3627 0.0000
				CHANNELS 3 Zrotation Yrotation Xrotation
				JOINT lfoot    
				{
					OFFSET 0.0000 -38.2947 0.0000
					CHANNELS 3 Zrotation Yrotation Xrotation
					JOINT ltoes    
					{
						OFFSET 0.0000 0.0000 16.6054
						CHANNELS 3 Zrotation Yrotation Xrotation
						End Site
						{
							OFFSET 0.0000 0.0000 5.5351
						}
					}
				}
			}
		}
	}
}
MOTION
Frames: 19
Frame Time: .0333333
113.34 88.882 17.743 93.4247 -84.6664 -69.7529 0 -0 0 -2.23615 -1.68991 -9.304 23.2417 -5.97655 -8.05488e-06 47.4622 16.6554 12.7011 -1.45968e-06 76.7478 -1.1558e-06 2.38926 3.39727 0.0709017 -26.2662 13.6763 8.65257e-05 -31.2075 -0.384955 -6.36128 9.76943e-07 -74.6366 -1.28154e-06 4.33358 0.278305 0.0105004 -11.6493 2.21775 -7.04943 1.67813 -0.161099 -4.91104 -0 -0 10.2615 -1.07865e-05 1.3378 21.4649 0.489595 -3.91307e-06 -61.0706 -7.48726 5.23447 -34.7657 -0 -0 35.4992 1.6309e-05 18.2504 1.47437 0.486099 1.75222e-06 -36.3202 
112.29 88.83 17.547 94.3743 -84.5937 -70.4764 0 -0 0 -2.78559 -1.5076 -9.35658 23.1023 -5.95746 -7.05704e-05 47.1089 16.9146 13.2953 -2.61317e-06 77.5662 -2.77033e-06 2.31466 3.54245 0.0715996 -26.1328 13.7768 0.000100025 -31.2981 -0.17246 -7.05457 0 -75.248 0 4.54023 0.280598 0.0111 -11.1117 2.19074 -7.42309 1.63973 -0.210602 -4.58854 -0 -0 10.2666 -8.16063e-06 1.8622 22.4951 0.712705 9.53471e-06 -62.2199 -8.15595 4.80913 -35.8327 -0 -0 34.5154 -3.02101e-06 17.7352 0.580804 0.185695 -5.07274e-07 -36.7706 
111.22 88.76 17.352 95.1559 -84.532 -71.0365 0 -0 0 -3.3602 -1.33829 -9.41491 22.9696 -5.93991 -2.81621e-05 46.7702 17.0984 13.8237 -0 78.4056 -0 2.25899 3.70099 0.073 -26.0018 13.8798 8.84675e-05 -31.3998 0.0112749 -7.72545 -9.72953e-07 -75.8329 7.57868e-07 4.76525 0.301995 0.0126 -10.5124 2.15357 -7.8079 1.59761 -0.322506 -4.30204 -0 -0 10.3727 -3.09353e-06 2.39156 23.4579 0.952499 -1.83163e-06 -63.4331 -8.89404 4.47182 -36.8625 -0 -0 33.4674 -2.26567e-07 17.0557 -0.254099 -0.0779992 -6.15551e-07 -37.6292 
110.13 88.667 17.155 95.8547 -84.4533 -71.5258 0 -0 0 -3.95458 -1.17499 -9.47385 22.8492 -5.92844 -3.21091e-06 46.4349 17.2095 14.2947 -1.03392e-06 79.2695 -1.2483e-06 2.21603 3.86918 0.0749011 -25.8762 13.9851 -3.04659e-05 -31.5151 0.164689 -8.36647 -1.0083e-06 -76.3945 7.93345e-07 5.00989 0.343195 0.0149998 -9.85368 2.10306 -8.19248 1.55504 -0.501697 -4.03994 -0 -0 10.5783 -8.65662e-06 2.91942 24.3501 1.20461 1.46757e-06 -64.7723 -9.70467 4.22261 -37.8295 -0 -0 32.3429 -1.16729e-06 16.2201 -1.0035 -0.291891 1.57903e-06 -38.9526 
109 88.55 16.955 96.4356 -84.3904 -71.9204 0 -0 0 -4.56003 -1.01029 -9.52702 22.7423 -5.92549 3.26797e-05 46.1002 17.2491 14.7107 -0 80.1474 -0 2.1929 4.04027 0.0773986 -25.7524 14.0906 -7.85118e-05 -31.6425 0.289237 -8.97105 0 -76.9264 0 5.27218 0.400807 0.0185001 -9.13675 2.03534 -8.56695 1.51634 -0.751498 -3.78921 -0 -0 10.8823 -2.23341e-05 3.44856 25.1665 1.46798 -2.03813e-05 -66.2524 -10.5774 4.04631 -38.706 -0 -0 31.137 5.93883e-08 15.2564 -1.6442 -0.448393 -1.93751e-06 -40.664 
107.85 88.404 16.752 96.9688 -84.3386 -72.3012 0 -0 0 -5.16437 -0.837206 -9.56884 22.6485 -5.93343 1.49839e-05 45.7584 17.2196 15.0719 -2.08434e-06 81.0401 -1.78154e-06 2.19776 4.20728 0.0806986 -25.6307 14.1926 -8.21465e-05 -31.7906 0.390857 -9.53538 0 -77.438 0 5.54751 0.469594 0.0227998 -8.36262 1.94768 -8.92405 1.48844 -1.06901 -3.538 -0 -0 11.2845 -7.42902e-06 3.99077 25.9039 1.74584 2.462e-05 -67.8544 -11.4862 3.91841 -39.469 -0 -0 29.8686 -1.22116e-05 14.2013 -2.15721 -0.545689 -2.06265e-09 -42.6453 
106.66 88.223 16.541 97.4491 -84.3061 -72.6688 0 -0 0 -5.75124 -0.6499 -9.59627 22.5727 -5.95404 -5.20977e-05 45.4046 17.1268 15.38 -0 81.9549 -0 2.23981 4.36247 0.0853006 -25.5055 14.2873 9.44599e-05 -31.964 0.480061 -10.0586 9.0901e-07 -77.9469 -1.12363e-06 5.82858 0.542605 0.0275994 -7.53181 1.83817 -9.26072 1.48197 -1.44199 -3.27726 -0 -0 11.7846 -1.68375e-05 4.56224 26.5628 2.04354 1.18637e-05 -69.5214 -12.3892 3.80902 -40.1073 -0 -0 28.5715 3.11064e-06 13.0997 -2.53306 -0.589208 -1.86177e-06 -44.7342 
105.44 88.004 16.323 97.8654 -84.3159 -73.0221 0 -0 0 -6.31183 -0.446994 -9.60296 22.5179 -5.98848 3.21666e-05 45.0287 16.9819 15.6335 -0 82.8845 -0 2.32857 4.49988 0.0915029 -25.3726 14.3688 -6.64143e-05 -32.1742 0.572136 -10.5443 0 -78.4472 0 6.10828 0.612198 0.0326989 -6.64119 1.7058 -9.5785 1.50076 -1.86909 -2.99973 -0 -0 12.3886 3.25173e-06 5.20036 27.1468 2.37798 4.3499e-05 -71.1856 -13.2378 3.68054 -40.6114 -0 -0 27.3024 8.97715e-06 12.0072 -2.78558 -0.592204 -4.44501e-06 -46.6702 
104.19 87.742 16.091 98.2135 -84.3682 -73.3516 0 -0 0 -6.83086 -0.230405 -9.59292 22.4897 -6.03633 -3.87386e-05 44.6239 16.7921 15.8315 -1.87434e-06 83.8241 -2.08809e-06 2.47128 4.61456 0.0995999 -25.2274 14.4311 3.80479e-05 -32.4262 0.681128 -10.9962 1.00307e-06 -78.9659 -1.21752e-06 6.38105 0.672504 0.0375007 -5.68807 1.55175 -9.88362 1.55611 -2.33022 -2.70954 -0 -0 13.1023 -1.57791e-05 5.92981 27.6683 2.76125 3.90528e-06 -72.7536 -13.9734 3.49946 -40.998 -0 -0 26.1337 4.25802e-06 10.983 -2.91743 -0.565899 -1.95745e-06 -48.394 
102.92 87.435 15.845 98.4488 -84.4829 -73.6132 0 -0 0 -7.30376 -0.00850062 -9.5683 22.4973 -6.09597 -1.80346e-05 44.1844 16.569 15.9714 -2.44993e-06 84.7827 -2.23628e-06 2.67351 4.70382 0.109796 -25.0645 14.4701 4.38829e-05 -32.726 0.8227 -11.4216 0 -79.5143 0 6.64435 0.718798 0.0417002 -4.66751 1.37869 -10.1854 1.65099 -2.81952 -2.41575 -0 -0 13.9367 -1.38133e-05 6.78733 28.1398 3.21262 -4.013e-06 -74.1375 -14.5467 3.23424 -41.2851 -0 -0 25.1484 4.80489e-06 10.0813 -2.95551 -0.525208 -1.36055e-06 -49.8306 
101.62 87.082 15.584 98.5302 -84.6343 -73.7608 0 -0 0 -7.73604 0.205291 -9.52721 22.5505 -6.1657 -2.52277e-05 43.7075 16.3243 16.0492 -5.53132e-06 85.7335 -5.95856e-06 2.93723 4.76787 0.122302 -24.8799 14.4768 -1.26539e-05 -33.0814 1.01371 -11.8311 0 -80.0916 0 6.9002 0.749106 0.0451994 -3.57476 1.19102 -10.4975 1.77723 -3.34772 -2.13222 -0 -0 14.9128 3.46285e-05 7.81535 28.5801 3.75661 1.5557e-05 -75.2853 -14.9189 2.86037 -41.497 -0 -0 24.4358 -2.13897e-06 9.3453 -2.95818 -0.486603 2.7015e-06 -50.6817 
100.3 86.687 15.31 98.412 -84.8257 -73.7398 0 -0 0 -8.13285 0.394201 -9.47404 22.6569 -6.24162 -9.41809e-06 43.1943 16.0685 16.0628 -2.6981e-06 86.7052 -2.54712e-06 3.2578 4.80867 0.136798 -24.6725 14.4509 -3.15782e-05 -33.4912 1.26029 -12.2319 1.21121e-06 -80.7121 -1.42536e-06 7.15811 0.765104 0.0478995 -2.40781 0.994855 -10.8319 1.92711 -3.92113 -1.88088 -0 -0 16.0504 -4.44965e-05 9.03502 29.0073 4.40925 6.3415e-05 -76.1483 -15.0754 2.36995 -41.6724 -0 -0 24.0749 -5.27373e-06 8.80236 -2.9545 -0.457296 6.67037e-06 -51.0928 
98.972 86.251 15.026 97.9889 -85.0632 -73.4415 0 -0 0 -8.50698 0.540568 -9.40641 22.8227 -6.32014 3.52082e-05 42.6527 15.813 16.0124 -1.45731e-05 87.6382 -1.46492e-05 3.62646 4.8311 0.153003 -24.4436 14.3903 2.74818e-05 -33.9566 1.56627 -12.6297 -2.15793e-06 -81.3684 1.85519e-06 7.43273 0.771102 0.0501015 -1.16919 0.797097 -11.2003 2.0823 -4.56269 -1.68262 -0 -0 17.3743 5.18351e-05 10.4614 29.4366 5.18496 1.98931e-06 -76.7154 -15.0205 1.77162 -41.8388 -0 -0 24.1378 6.81193e-07 8.45392 -3.00288 -0.446102 -1.05493e-06 -50.9375 
97.638 85.781 14.737 97.2546 -85.2982 -72.8571 0 -0 0 -8.87326 0.629541 -9.31591 23.0458 -6.39858 6.52509e-05 42.0977 15.5722 15.9007 -5.16912e-06 88.5584 -5.29986e-06 4.02887 4.84017 0.170302 -24.1966 14.2949 0.000138523 -34.4782 1.92828 -13.0281 0 -82.0604 0 7.74285 0.773203 0.0522993 0.132499 0.6049 -11.609 2.21688 -5.30426 -1.55336 -0 -0 18.9094 0.000143514 12.0926 29.8855 6.09309 2.65852e-05 -77.0134 -14.7871 1.0936 -42.0172 -0 -0 24.6707 1.41294e-06 8.27871 -3.14699 -0.457691 -2.61761e-06 -50.2253 
96.298 85.284 14.447 96.2052 -85.525 -71.9826 0 -0 0 -9.2344 0.651775 -9.19725 23.319 -6.47277 -3.97734e-05 41.5511 15.3543 15.7362 -2.50243e-05 89.467 -2.47799e-05 4.44642 4.84137 0.188098 -23.9418 14.1724 8.91431e-05 -35.0504 2.33452 -13.4253 -2.54174e-06 -82.7589 2.23928e-06 8.11223 0.7801 0.0553004 1.47914 0.425295 -12.0556 2.31305 -6.1574 -1.50642 -0 -0 20.6683 -5.86177e-06 13.8796 30.3631 7.1195 3.96143e-05 -77.0662 -14.4167 0.383315 -42.2248 -0 -0 25.6997 -1.97855e-06 8.23155 -3.43581 -0.496705 -8.74334e-08 -48.8316 
94.954 84.767 14.163 94.9149 -85.7432 -70.902 0 -0 0 -9.59764 0.605193 -9.03704 23.6263 -6.54212 -4.17832e-05 41.0394 15.168 15.5306 -180 89.7533 -180 4.85908 4.83858 0.205399 -23.6853 14.0313 8.62859e-05 -35.6777 2.76387 -13.8105 1.24353e-06 -83.4428 -1.39469e-06 8.56307 0.798506 0.059799 2.84763 0.263404 -12.5323 2.34375 -7.13931 -1.54315 -0 -0 22.6612 -3.9052e-05 15.7588 30.8813 8.24157 8.70804e-05 -76.9381 -13.9651 -0.302603 -42.4516 -0 -0 27.2036 2.60535e-08 8.26606 -3.87941 -0.563204 -4.00417e-06 -46.9073 
93.606 84.24 13.889 93.5218 -85.9529 -69.7544 0 -0 0 -9.95428 0.495345 -8.83244 23.9475 -6.60475 -4.68577e-06 40.5949 15.0182 15.303 -180 89.0797 -180 5.24669 4.83464 0.221603 -23.4446 13.8789 0.000138761 -36.3511 3.1989 -14.1748 1.38482e-06 -84.0726 -1.53595e-06 9.1148 0.8358 0.066601 4.20546 0.121793 -13.0156 2.29731 -8.23339 -1.6636 -0 -0 24.8804 3.50159e-05 17.6141 31.4406 9.40322 2.61876e-05 -76.6863 -13.4802 -0.911716 -42.6797 -0 -0 29.1239 8.19956e-08 8.33557 -4.50282 -0.659011 -2.73095e-06 -44.2912 
92.249 83.714 13.631 92.2913 -86.1401 -68.8127 0 -0 0 -10.3078 0.331003 -8.57662 24.2664 -6.66221 -1.44329e-06 40.2422 14.9095 15.0732 -180 88.4756 -180 5.59243 4.8289 0.236008 -23.2298 13.7332 -0.000123023 -37.0696 3.60431 -14.4932 0 -84.6148 0 9.7775 0.894395 0.0765006 5.5218 -0.000684269 -13.479 2.1481 -9.42792 -1.86046 -0 -0 27.3156 -0.000110318 19.3219 32.0414 10.5377 -2.04626e-05 -76.3957 -13.0087 -1.40759 -42.8594 -0 -0 31.3462 3.33855e-06 8.42064 -5.28129 -0.780695 2.32988e-06 -41.1968 
90.885 83.204 13.394 91.5469 -86.2769 -68.3963 0 -0 0 -10.6502 0.123898 -8.28267 24.5638 -6.71545 -1.65548e-05 40.0027 14.8405 14.8642 -180 88.0051 -180 5.88497 4.81811 0.247804 -23.0573 13.5982 3.4984e-05 -37.8191 3.9635 -14.7503 3.33468e-06 -85.0297 -3.63685e-06 10.5506 0.976299 0.0900991 6.76253 -0.108182 -13.8829 1.88831 -10.682 -2.13576 -0 -0 29.9398 4.92176e-05 20.7304 32.67 11.5465 2.85768e-05 -76.1411 -12.5814 -1.77121 -42.949 -0 -0 33.7294 -4.77871e-06 8.51642 -6.19709 -0.926108 -3.38985e-06 -37.6807 
